<svg xmlns="http://www.w3.org/2000/svg" viewBox="0 0 64 64">
    <path
        d="M39.13-.078c-8.517 0-24.6 1.444-24.6 6.924V24.97l-3.34-3.836a3.7 3.582 0 0 0-2.762-1.243 7.703 7.458 0 0 0-5.522 2.673c-2.664 2.753-3.465 6.429-1.74 8.393l13.378 15.358V62.74a1.38 1.337 0 0 0 1.38 1.337h46.44a1.38 1.337 0 0 0 1.381-1.337V6.846c0-5.48-16.096-6.924-24.614-6.924zm0 2.674c14.413 0 21.854 2.98 21.854 4.25s-7.427 4.25-21.84 4.25-21.839-2.98-21.839-4.25 7.427-4.25 21.826-4.25zM4.909 24.368a5.177 5.012 0 0 1 3.382-1.79.897.869 0 0 1 .746.293c.621.709.29 2.9-1.643 4.865a5.066 4.905 0 0 1-3.424 1.791h-.317l-.18-.066-.124-.134-.069-.067c-.607-.708-.276-2.954 1.63-4.892zm56.076 37.037h-3.713V49.469a1.38 1.337 0 0 0-2.761 0v11.936H36.743V36.197a1.38 1.337 0 0 0-2.761 0v25.208h-9.056v-6.683a1.38 1.337 0 0 0-2.762 0v6.683h-4.873V45.834a1.38 1.337 0 0 0-.331-.856L5.654 32h.138a7.123 6.897 0 0 0 .704-.267l.207-.094a8.449 8.18 0 0 0 .87-.468l.165-.107q.36-.227.69-.494l.235-.187a10.575 10.238 0 0 0 .8-.722 11.32 10.96 0 0 0 .857-1.002l.22-.321c.166-.24.332-.481.484-.735l.207-.361c.124-.24.248-.495.345-.735l.138-.334v-.147l3.092 3.555a1.38 1.337 0 0 0 2.43-.856V10.308h.124l.746.36.22.094.967.388h.193l.925.294.263.08 1.145.307h.194l1.063.24h.303l1.257.255h.179l.566.093v26.464a1.38 1.337 0 0 0 2.761 0V13.101l.856.107h.331l1.38.134h.097l1.27.106h.318l1.38.094H36.454v10.933a1.38 1.337 0 0 0 2.76 0V13.77H44.557l1.38-.093h.318l1.27-.107h.097l1.38-.134h.332l1.229-.147h.151l.677-.093v22.04a1.38 1.337 0 0 0 2.76 0V12.513l.815-.16h.304l1.063-.241h.193l1.146-.308.262-.08.925-.294h.194l.966-.387.22-.094.746-.36h.125l-.125 50.816z"/>
</svg>
