<svg xmlns="http://www.w3.org/2000/svg" viewBox="0 0 24 24">
    <ellipse cx="13.994" cy="3.12" fill="none" stroke="currentColor" stroke-linecap="round" stroke-miterlimit="10"
             rx="6.93" ry="2.62"/>
    <path fill="none" stroke="currentColor" stroke-linecap="round" stroke-miterlimit="10"
          d="M20.924 20.88c0 1.45-3.1 2.62-6.93 2.62s-6.93-1.17-6.93-2.62M7.064 3.12v4.93M20.924 3.12v17.76"
    />
    <ellipse cx="-.646" cy="11.23" fill="none" stroke="currentColor" stroke-linecap="round" stroke-miterlimit="10"
             rx="2.19" ry=".99" transform="rotate(-37.6 -2.976 3.11)"/>
    <path fill="none" stroke="currentColor" stroke-linecap="round" stroke-miterlimit="10"
          d="m7.064 8.05-1.5-1.26M7.064 15.21l-4.97-5.75M7.064 15.21v5.67M9.504 9.81l-2.44-1.76M13.664 7.52v4.21M13.664 16.78v4.52M15.734 19.75v1.55M17.794 15.96v5.34M15.774 7.52v6.23M17.794 7.52v2.11M15.734 17.78v.42M17.794 11.14h0"
    />
</svg>